<?xml version="1.0" encoding="utf-8"?>
<!-- Generator: Adobe Illustrator 25.3.1, SVG Export Plug-In . SVG Version: 6.00 Build 0)  -->
<svg version="1.1" id="Layer_1" xmlns="http://www.w3.org/2000/svg" xmlns:xlink="http://www.w3.org/1999/xlink" x="0px" y="0px"
	 viewBox="0 0 640 320" style="enable-background:new 0 0 640 320;" xml:space="preserve">
<g>
	<g>
		<path d="M44.58,179.43h10.98v50.58c0,20.65,8.76,27.18,19.87,27.18c11.37,0,20.39-6.53,20.39-27.18v-50.58h10.46v50.32
			c0,27.58-13.33,36.99-30.84,36.99s-30.84-9.41-30.84-36.99V179.43z"/>
		<path d="M121.43,201.65h8.89l0.92,9.15h0.39c6.01-6.01,12.55-10.72,21.3-10.72c13.33,0,19.34,8.62,19.34,24.83v40.25h-10.72
			v-38.82c0-11.89-3.66-16.99-12.02-16.99c-6.53,0-10.98,3.4-17.38,9.8v46h-10.72V201.65z"/>
		<path d="M212.65,200.08c7.32,0,12.15,2.74,17.77,7.32l-0.52-10.85v-24.44h10.85v93.05h-8.89l-0.91-7.45h-0.39
			c-4.97,4.83-11.76,9.02-19.21,9.02c-15.94,0-26.27-12.02-26.27-33.2C185.08,212.89,198.15,200.08,212.65,200.08z M213.7,257.72
			c5.88,0,10.98-2.88,16.21-8.76v-33.2c-5.36-4.84-10.19-6.67-15.42-6.67c-10.19,0-18.3,9.8-18.3,24.31
			C196.19,248.57,202.59,257.72,213.7,257.72z"/>
		<path d="M282.71,200.08c16.21,0,25.35,11.63,25.35,29.8c0,2.22-0.13,4.31-0.39,5.88H264.8c0.78,13.72,9.02,22.35,21.17,22.35
			c6.01,0,11.11-1.96,15.81-4.97l3.79,7.06c-5.49,3.53-12.29,6.53-20.91,6.53c-16.99,0-30.45-12.42-30.45-33.2
			C254.22,212.76,268.2,200.08,282.71,200.08z M298.65,228.71c0-12.94-5.75-20.13-15.68-20.13c-8.89,0-16.99,7.32-18.3,20.13H298.65
			z"/>
		<path d="M323.75,201.65h8.89l0.92,11.5h0.39c4.31-7.97,10.85-13.07,18.04-13.07c2.74,0,4.71,0.39,6.8,1.31l-2.09,9.41
			c-2.09-0.65-3.53-1.05-6.14-1.05c-5.36,0-11.76,3.92-16.08,14.64v40.78h-10.72V201.65z"/>
		<path d="M372.23,262.95v-0.52c-3.14-1.96-5.62-5.36-5.62-10.33c0-5.36,3.66-9.54,6.93-11.76v-0.52c-4.18-3.4-8.23-9.54-8.23-17.12
			c0-13.85,10.98-22.61,23.92-22.61c3.53,0,6.67,0.65,9.02,1.57h22.09v8.23h-13.07c3.01,2.88,5.23,7.71,5.23,13.07
			c0,13.59-10.32,22.09-23.26,22.09c-3.14,0-6.67-0.78-9.54-2.22c-2.22,1.96-4.05,4.05-4.05,7.58c0,4.05,2.61,6.93,11.24,6.93h12.29
			c14.77,0,22.22,4.57,22.22,15.16c0,11.76-12.42,21.96-32.15,21.96c-15.55,0-26.27-6.14-26.27-17.12
			C362.95,271.96,366.48,266.87,372.23,262.95z M390.79,286.99c12.15,0,20.13-6.27,20.13-12.94c0-5.88-4.57-7.84-12.81-7.84h-10.98
			c-2.48,0-5.49-0.26-8.23-1.05c-4.57,3.27-6.53,7.06-6.53,10.72C372.36,282.68,379.29,286.99,390.79,286.99z M402.68,222.69
			c0-9.28-6.01-14.77-13.46-14.77s-13.46,5.49-13.46,14.77s6.14,15.16,13.46,15.16C396.54,237.85,402.68,231.97,402.68,222.69z"/>
		<path d="M433.66,201.65h8.89l0.92,11.5h0.39c4.31-7.97,10.85-13.07,18.04-13.07c2.74,0,4.71,0.39,6.8,1.31l-2.09,9.41
			c-2.09-0.65-3.53-1.05-6.14-1.05c-5.36,0-11.76,3.92-16.08,14.64v40.78h-10.72V201.65z"/>
		<path d="M514.95,224.92c0-8.1-2.75-15.94-13.07-15.94c-7.45,0-13.98,3.4-18.95,6.8l-4.31-7.45c5.88-3.79,14.77-8.23,24.96-8.23
			c15.55,0,22.09,10.32,22.09,26.14v38.95h-8.89l-0.92-7.58h-0.26c-6.14,4.97-13.2,9.15-21.04,9.15c-10.72,0-18.69-6.67-18.69-18.04
			C475.88,234.85,487.9,227.92,514.95,224.92z M497.57,258.11c6.14,0,11.24-3.01,17.38-8.5v-17.64
			c-21.3,2.61-28.49,7.84-28.49,15.94C486.46,255.1,491.3,258.11,497.57,258.11z"/>
		<path d="M567.62,200.08c7.32,0,12.15,2.74,17.77,7.32l-0.52-10.85v-24.44h10.85v93.05h-8.89l-0.91-7.45h-0.39
			c-4.97,4.83-11.76,9.02-19.21,9.02c-15.94,0-26.27-12.02-26.27-33.2C540.05,212.89,553.12,200.08,567.62,200.08z M568.67,257.72
			c5.88,0,10.98-2.88,16.21-8.76v-33.2c-5.36-4.84-10.19-6.67-15.42-6.67c-10.19,0-18.3,9.8-18.3,24.31
			C551.16,248.57,557.56,257.72,568.67,257.72z"/>
	</g>
</g>
</svg>
