<?xml version="1.0" encoding="utf-8"?>
<!-- Generator: Adobe Illustrator 25.3.1, SVG Export Plug-In . SVG Version: 6.00 Build 0)  -->
<svg version="1.1" id="Layer_1" xmlns="http://www.w3.org/2000/svg" xmlns:xlink="http://www.w3.org/1999/xlink" x="0px" y="0px"
	 viewBox="0 0 640 320" style="enable-background:new 0 0 640 320;" xml:space="preserve">
<g>
	<g>
		<path class="st0" d="M41.5,179.43h10.98v50.58c0,20.65,8.76,27.18,19.87,27.18c11.37,0,20.39-6.54,20.39-27.18v-50.58h10.46v50.32
			c0,27.58-13.33,36.99-30.84,36.99s-30.84-9.41-30.84-36.99V179.43z"/>
		<path class="st0" d="M118.35,201.65h8.89l0.92,9.15h0.39c6.01-6.01,12.55-10.72,21.3-10.72c13.33,0,19.34,8.62,19.34,24.83v40.25
			h-10.72v-38.82c0-11.89-3.66-16.99-12.02-16.99c-6.53,0-10.98,3.4-17.38,9.8v46h-10.72V201.65z"/>
		<path class="st0" d="M209.58,200.08c7.32,0,12.15,2.74,17.77,7.32l-0.52-10.85v-24.44h10.85v93.05h-8.89l-0.91-7.45h-0.39
			c-4.97,4.83-11.76,9.02-19.21,9.02c-15.94,0-26.27-12.02-26.27-33.2C182,212.89,195.07,200.08,209.58,200.08z M210.62,257.72
			c5.88,0,10.98-2.88,16.21-8.76v-33.2c-5.36-4.84-10.19-6.66-15.42-6.66c-10.19,0-18.3,9.8-18.3,24.31
			C193.11,248.57,199.52,257.72,210.62,257.72z"/>
		<path class="st0" d="M279.63,200.08c16.21,0,25.35,11.63,25.35,29.8c0,2.22-0.13,4.31-0.39,5.88h-42.87
			c0.78,13.72,9.02,22.35,21.17,22.35c6.01,0,11.11-1.96,15.81-4.96l3.79,7.06c-5.49,3.53-12.29,6.54-20.91,6.54
			c-16.99,0-30.45-12.42-30.45-33.2C251.14,212.76,265.13,200.08,279.63,200.08z M295.58,228.71c0-12.94-5.75-20.13-15.68-20.13
			c-8.89,0-16.99,7.32-18.3,20.13H295.58z"/>
		<path class="st0" d="M320.67,201.65h8.89l0.92,11.5h0.39c4.31-7.97,10.85-13.07,18.04-13.07c2.74,0,4.71,0.39,6.8,1.31l-2.09,9.41
			c-2.09-0.65-3.53-1.05-6.14-1.05c-5.36,0-11.76,3.92-16.08,14.64v40.78h-10.72V201.65z"/>
		<path class="st0" d="M369.16,262.95v-0.52c-3.14-1.96-5.62-5.36-5.62-10.33c0-5.36,3.66-9.54,6.93-11.76v-0.52
			c-4.18-3.4-8.23-9.54-8.23-17.12c0-13.85,10.98-22.61,23.92-22.61c3.53,0,6.67,0.65,9.02,1.57h22.09v8.23h-13.07
			c3.01,2.88,5.23,7.71,5.23,13.07c0,13.59-10.32,22.09-23.26,22.09c-3.14,0-6.67-0.78-9.54-2.22c-2.22,1.96-4.05,4.05-4.05,7.58
			c0,4.05,2.61,6.93,11.24,6.93h12.29c14.77,0,22.22,4.57,22.22,15.16c0,11.76-12.42,21.96-32.15,21.96
			c-15.55,0-26.27-6.14-26.27-17.12C359.88,271.96,363.41,266.87,369.16,262.95z M387.72,286.99c12.15,0,20.13-6.27,20.13-12.94
			c0-5.88-4.57-7.84-12.81-7.84h-10.98c-2.48,0-5.49-0.26-8.23-1.04c-4.57,3.27-6.53,7.06-6.53,10.72
			C369.29,282.68,376.22,286.99,387.72,286.99z M399.61,222.69c0-9.28-6.01-14.77-13.46-14.77s-13.46,5.49-13.46,14.77
			s6.14,15.16,13.46,15.16C393.47,237.85,399.61,231.97,399.61,222.69z"/>
		<path class="st0" d="M430.59,201.65h8.89l0.92,11.5h0.39c4.31-7.97,10.85-13.07,18.04-13.07c2.74,0,4.71,0.39,6.8,1.31l-2.09,9.41
			c-2.09-0.65-3.53-1.05-6.14-1.05c-5.36,0-11.76,3.92-16.08,14.64v40.78h-10.72V201.65z"/>
		<path class="st0" d="M511.88,224.91c0-8.1-2.75-15.94-13.07-15.94c-7.45,0-13.98,3.4-18.95,6.79l-4.31-7.45
			c5.88-3.79,14.77-8.23,24.96-8.23c15.55,0,22.09,10.32,22.09,26.14v38.95h-8.89l-0.92-7.58h-0.26c-6.14,4.96-13.2,9.15-21.04,9.15
			c-10.72,0-18.69-6.67-18.69-18.04C472.8,234.85,484.83,227.92,511.88,224.91z M494.5,258.11c6.14,0,11.24-3.01,17.38-8.49v-17.64
			c-21.3,2.61-28.49,7.84-28.49,15.94C483.39,255.1,488.22,258.11,494.5,258.11z"/>
		<path class="st0" d="M564.55,200.08c7.32,0,12.15,2.74,17.77,7.32l-0.52-10.85v-24.44h10.85v93.05h-8.89l-0.91-7.45h-0.39
			c-4.97,4.83-11.76,9.02-19.21,9.02c-15.94,0-26.27-12.02-26.27-33.2C536.97,212.89,550.04,200.08,564.55,200.08z M565.59,257.72
			c5.88,0,10.98-2.88,16.21-8.76v-33.2c-5.36-4.84-10.19-6.66-15.42-6.66c-10.19,0-18.3,9.8-18.3,24.31
			C548.08,248.57,554.49,257.72,565.59,257.72z"/>
	</g>
</g>
</svg>
