<?xml version="1.0" encoding="utf-8"?>
<!-- Generator: Adobe Illustrator 25.3.1, SVG Export Plug-In . SVG Version: 6.00 Build 0)  -->
<svg version="1.1" id="Layer_1" xmlns="http://www.w3.org/2000/svg" xmlns:xlink="http://www.w3.org/1999/xlink" x="0px" y="0px"
	 viewBox="0 0 640 320" style="enable-background:new 0 0 640 320;" xml:space="preserve">
<g>
	<g>
		<g>
			<path class="st0" d="M185.46,154.16c-20,0-21.55-15.19-21.55-19.84c0-5.48,1.45-15.16,14.22-19.84
				c13.14-4.84,15.96-5.4,24.99-8.25v-2.33c0-4.39,0-5.45-0.85-8.18c-1.74-5.22-6.77-8.48-13.53-8.48c-9.99,0-14.07,7.59-14.1,7.69
				l-0.8,1.49l-3.7-2.19l0.37-1.13c1.79-5.76,9.06-15.51,24.87-15.51c10.29,0,17.01,2.92,21.14,9.22
				c3.09,5.01,3.35,11.91,3.35,19.15c0,6.34-0.16,13.43-0.29,19.14c-0.1,3.92-0.18,7.3-0.18,9.38c0,5.21,0.83,9.23,5.17,9.23
				c1.09,0,1.8-0.21,2.42-0.72l1.2-1.01l2.44,2.77l-0.82,1.04c-4.02,4.81-7.81,8.22-14.59,8.22c-5.86,0-9.94-2.79-11.28-7.49
				C200.66,149.92,194.73,154.16,185.46,154.16z M203.12,115.36c-9.79,2.94-13.16,4.59-16.2,6.12c-4.23,2.14-6.43,6.48-6.43,11.59
				c0,3.98,1.43,10.69,11.02,10.69c3.15,0,7.69-0.6,11.61-3.41V115.36z"/>
		</g>
		<g>
			<g>
				<path class="st0" d="M63.29,153.96c-9.58,0-16.86-1.04-24.37-3.49l-1.06-0.34v-5.36c0-7.15-0.14-9.97-0.31-12.23l-0.21-3.72
					l4.34,0.03l0.09,1.55c0.18,3.32,1.32,6.6,3.34,8.9c3.14,3.55,10.37,5.66,17.08,5.66c14.06,0,20.61-5.3,20.61-16.73
					c0-9.78-6.05-13.86-14.41-19.51l-1.33-0.9l-8.83-5.89C45.97,93.81,39.73,87.3,39.73,74.3c0-6.37,2.4-27.13,33.31-27.13
					c12.7,0,22.48,1.65,22.9,1.73l1.33,0.23l-0.03,1.3c0,0.05-0.13,4.07-0.13,8.45c0,3.44-0.06,6.43,0.07,9.54l0.11,2.31h-3.74
					l-0.12-1.45c-0.26-3.92-1.4-6.75-3.57-8.93c-2.98-2.97-9.55-4.36-16.51-4.36c-16.4,0-18.3,8.42-18.3,14.74
					c0,8.7,4.45,11.64,14.19,18.08l11.19,7.4c9.5,6.35,18.5,12.35,18.5,28.14C98.95,151.07,74.01,153.96,63.29,153.96z"/>
			</g>
			<g>
				<path class="st0" d="M136.54,154.44c-11.39,0-17.73-4.07-20.55-13.2c-1.15-3.61-1.15-10.76-1.15-15.02
					c0-11.8,0.11-21.25,0.25-32.21l0.05-5.14h-9.74v-2.89l0.96-0.38c4.54-1.87,6.25-3.15,8.26-4.7c7.1-5.5,12.03-14.79,12.1-14.93
					l1.65-2.82h3.23v16.58h25.12v9.14h-25.12v38.75c0,11.54,2.16,18.16,13.11,18.16c5.1,0,9-1.96,9.05-1.99l1.51-0.78l1.27,3
					l-0.63,0.72C155.65,147.01,149.95,154.44,136.54,154.44z"/>
			</g>
			<g>
				<path class="st0" d="M236.88,153.49V150l1.42-0.09c1.26-0.11,4.4-0.6,6.56-3.06c2.3-2.56,2.41-8.83,2.41-21.4v-21.08
					c0-9.06-0.14-12.97-1.46-14.94c-1.5-2.16-4.82-2.39-6.61-2.53c-0.21,0-0.41-0.03-0.6-0.05l-1.42-0.14v-4.23l1.68,0.14
					c0.29,0.01,0.67,0.03,1.14,0.03c2.27,0,7.66-0.29,13.33-1.41c4.32-0.69,6.87-2.19,7.8-2.6l0.83-0.4l1.43,0.86v5.85
					c3.74-2.76,11.22-7.07,21.4-7.07c13.3,0,21.99,6.2,24.46,17.48c0.7,2.8,0.97,9.58,0.97,13.2v21.53c0,12.17,0.49,15.6,2.76,17.74
					c1.16,1.06,3.58,1.91,5.71,2.05l1.43,0.12v3.45l-3.63-0.2c-5.31-0.28-9.88-0.52-14.65-0.52c-5.44,0-10.16,0-16.75,0.61
					l-1.69,0.15v-3.38l1.32-0.2c2.83-0.44,4.85-1.26,6.11-2.53c2.37-2.37,2.51-8.05,2.69-12.94c0.02-0.83,0.06-1.68,0.09-2.57
					c0.16-2.76,0.16-8.56,0.16-12.78c0-5.51,0-11.22-0.62-16.87c-1.09-9.52-6.06-13.96-15.66-13.96c-6.57,0-10.68,1.5-13.78,3.09
					v38.73c0,12.17,0.5,15.6,2.76,17.74c1.16,1.06,3.58,1.91,5.71,2.05l1.45,0.12v3.45l-3.93-0.21c-5.12-0.28-9.52-0.5-14.21-0.5
					c-5.3,0-10.31,0-16.93,0.61L236.88,153.49z"/>
			</g>
			<g>
				<path class="st0" d="M328.9,153.49v-3.57l1.42-0.11c1.26-0.08,4.39-0.57,6.56-3.03c2.28-2.56,2.4-8.77,2.4-21.34V88.86h-9.61
					v-4.13l0.96-0.41c4.18-1.72,6.76-3.08,8.64-4.55c0.01-6.54,0.23-14.97,1.12-19.57c2.9-15.22,12.85-22.95,29.58-22.95
					c7.21,0,14.03,2.4,18.01,5.62l0.57,0.47l0.24,1.56l-7.33,10.17l-1.75,0.02l-0.41-0.9c-2.81-6.26-6.87-8.71-12.43-8.71
					c-2.32,0-5.48,0.69-7.43,2.65c-3.19,3.18-3.73,7.93-3.73,17.35v14.25h16.43v9.14h-16.43v40.92c0,9.72,0.32,14.47,1.59,16.37
					c2.07,3.12,8.33,3.35,10.17,3.35h1.56v3.94l-1.63-0.11c-8.11-0.41-14.17-0.61-18.52-0.61c-5.49,0-11.7,0-18.3,0.61L328.9,153.49
					z"/>
			</g>
			<g>
				<path class="st0" d="M413.75,154.74c-22.52,0-35.96-14.02-35.96-37.51c0-18.23,9.81-39.53,37.5-39.53
					c22.53,0,35.96,14.02,35.96,37.49C451.26,133.46,441.44,154.74,413.75,154.74z M414.68,86.21c-4.36,0-7.88,1.13-10.47,3.35
					c-5.91,4.98-8.92,14.01-8.92,26.88c0,4.96,0.93,29.76,19.07,29.76c4.36,0,7.87-1.13,10.47-3.34c5.9-4.98,8.9-14.01,8.9-26.88
					C433.73,111.02,432.82,86.21,414.68,86.21z"/>
			</g>
			<g>
				<path class="st0" d="M458.38,153.49v-3.72l1.44-0.11c1.24-0.09,4.37-0.58,6.55-3.05c2.28-2.54,2.4-8.6,2.4-21.17v-21.08
					c0-9.06-0.12-12.97-1.45-14.94c-1.52-2.16-4.83-2.39-6.61-2.53c-0.21,0-0.42-0.03-0.6-0.05l-1.42-0.14v-4.47l1.58,0.03
					c0.28,0.01,0.76,0.05,1.22,0.05c2.3,0,7.67-0.31,13.34-1.42c3.58-0.58,6.66-1.52,7.9-2.08l0.84-0.38l1.32,0.67v6.41
					c3.51-3.34,9.14-6.87,17.06-6.87c5.17,0,9.31,1.38,12.36,4.12l0.5,0.46v2.33l-6.22,11.38h-3.01l-0.44-0.7
					c-1.74-2.71-5.19-5.94-11.87-5.94c-3.07,0-5.71,0.75-8.06,2.34v37.17c0,9.72,0.33,14.31,1.59,16.23
					c2.07,3.09,8.33,3.34,10.17,3.34h1.56v4.09l-1.63-0.11c-8.11-0.41-14.17-0.61-18.52-0.61c-5.48,0-11.7,0-18.3,0.61
					L458.38,153.49z"/>
			</g>
			<g>
				<path class="st0" d="M574.33,154.53l-1.97-0.66v-6.2c-3.66,2.69-10.92,6.91-20.62,6.91c-20.23,0-33.32-14.04-33.32-35.8
					c0-7.23,1.39-14.07,4.01-19.86c6.19-13.38,19.02-21.05,35.21-21.05c5.92,0,11.25,0.72,14.41,1.41V63.6
					c0-9.19-0.13-14.1-1.45-16.08c-1.51-2.16-4.75-2.39-6.47-2.53c-0.24,0-0.44-0.03-0.6-0.05l-1.4-0.14l0.34-3.31h1.55
					c0.34,0,8.86-0.72,15.79-2.07c2.9-0.48,5.79-1.13,7.29-1.67l0.74-0.28l1.28,0.75l-0.06,0.74c-0.5,6.06-0.57,19.06-0.57,28.8
					v60.14c0,8.99,0.14,14.54,1.42,16.34c1.52,2.2,4.76,2.57,6.51,2.68c0.23,0.03,0.43,0.05,0.6,0.08l1.4,0.05v3.97h-1.55
					c-1.65,0-8.1,0.44-14.31,1.52c-3.61,0.58-6.25,1.1-7.53,1.68L574.33,154.53z M557.33,86.7c-14.4,0-21.4,9.83-21.4,30.05
					c0,8.21,2.31,27.28,23.72,27.28h0.69c2.6,0,7.47-0.38,11.71-3V91.63C570.84,90.44,566.34,86.7,557.33,86.7z"/>
			</g>
		</g>
	</g>
</g>
</svg>
